# xmcd
#
# Track frame offsets:
#	150
#	14934
#	28662
#	43426
#	57826
#	70942
#	85106
#	98427
#	113541
#	128044
#	142351
#	156328
#	171883
#	187219
#	202859
#	217954
#	231595
#	245789
#	260834
#	274874
#
# Disc length: 3856 seconds
#
# Revision: 0
# Processed by: cddbd v1.5.2PL0 Copyright (c) Steve Scherf et al.
# Submitted via: EasyCDDAExtractor 16.0.6.1
#
DISCID=380f0e14
DTITLE=Συλλογικός δίσκος - Τα ρεμπέτικα Β 1922-1937 09 Β
DYEAR=2010
DGENRE=Ρεμπέτικη
TTITLE0=Κασιμάτης Ζαχαρίας - Ο μάγκας του Βοτανικού [Σ. Περιστέρης, Αθήνα 1934
TTITLE0=]
TTITLE1=Εσκενάζυ Ρόζα - Γύφτισσα [τσιφτετ., Μεν. Μιχαηλίδης, Αθήνα 1934]
TTITLE2=Βαμβακάρης Μάρκος - Θέλω μαστούρης να γινώ [ζεϊμπ., Μ. Βαμβακάρης, Αθή
TTITLE2=να 1934]
TTITLE3=Αμπατζή Ρίτα - Νέος κόνιαλης [ανατ. συρτό, Ι. Δραγάτσης, Αθήνα 8.1.193
TTITLE3=4]
TTITLE4=Ρούκουνας Κώστας ή Σαμιωτάκης - Γειά σου Λόλα μερακλού [ζεϊμπ., Δημ. Μ
TTITLE4=παρούσης, Αθήνα 1935]
TTITLE5=Περπινιάδης Στελλάκης - Μάγισσα [χασάπ., Κ. Σκαρβέλης, Αθήνα 1935]
TTITLE6=Εσκενάζυ Ρόζα - Ο καυγάς για το πετσί [ζεϊμπ., Εμ. Χρυσαφάκης, Αθ. 28.
TTITLE6=12.1934]
TTITLE7=Βαμβακάρης Μάρκος - Κάποτε ήμουνα κι εγώ [χασάπ., Μ. Βαμβακάρης, Αθήνα
TTITLE7=11.1934]
TTITLE8=Ρούκουνας Κώστας ή Σαμιωτάκης - Ελένη [ζεϊμπέκικο, Κ. Ρούκουνας, Αθήνα
TTITLE8=1934]
TTITLE9=Μαρκοπούλου Μαριώ ή Σαλονικιά - Λούλα μου Αθηνούλα μου [ζεϊμπ. καμηλ.,
TTITLE9=Παν. Τούντας, Αθ. 1935]
TTITLE10=Εσκενάζυ Ρόζα - Συλιβριανό [συρτό, διασκ. Δ. Σέμσης, Αθήνα 11.1934]
TTITLE11=Κασιμάτης Ζαχαρίας - Μπελεντέρια [ζεϊμπ. απτάλ., Σ. Περιστέρης, Αθήνα
TTITLE11=1934]
TTITLE12=Βαμβακάρης Μάρκος - Ο συνάχης [ζεϊμπ., Μ. Βαμβακάρης, Αθήνα 11.1934]
TTITLE13=Αμπατζή Ρίτα - Ζούλα η Μαριωρή [ζεϊμπ., Παν. Τούντας, Αθήνα 1934]
TTITLE14=Ατραΐδης Δημήτρης - Μανές νεβά τσιφτετέλλι(ΤονΧάρο ρωτήσανε)[Π. Τούντ
TTITLE14=ας,Αθ.11.1934]
TTITLE15=Ρούκουνας Κώστας ή Σαμιωτάκης - Ο γλεντζές [χασάπ., Στ. Παντελίδης, Α
TTITLE15=θήνα 1935]
TTITLE16=Εσκενάζυ Ρόζα - Κηφισιώτισσα [συρτός, Δ. Σέμσης-Δήμος Χολέβας, Αθήνα 
TTITLE16=17.7.1934]
TTITLE17=Ρούκουνας Κώστας ή Σαμιωτάκης - Ούζο, ούζο [ζεϊμπ., Αντ. Σακελλαρίου,
TTITLE17=Αθήνα 1935 ή 36]
TTITLE18=Αμπατζή Ρίτα - Το φλυντζάνι του Γιάννη [ζεϊμπ., Εμμ. Χρυσαφάκης, Αθήν
TTITLE18=α 7.1934]
TTITLE19=Γκόγκος Δημήτρης ή Μπαγιαντέρας - Ήταν άνοιξις [ζεϊμπ., Δημ. Γκόγκος,
TTITLE19=Αθήνα 7.1935]
EXTD=
EXTT0=
EXTT1=
EXTT2=
EXTT3=
EXTT4=
EXTT5=
EXTT6=
EXTT7=
EXTT8=
EXTT9=
EXTT10=
EXTT11=
EXTT12=
EXTT13=
EXTT14=
EXTT15=
EXTT16=
EXTT17=
EXTT18=
EXTT19=
PLAYORDER=
